<svg width="135" height="45" viewBox="0 0 135 45" fill="none" xmlns="http://www.w3.org/2000/svg">
<g clip-path="url(#clip0)">
<path d="M6.85727 4.68816C-1.2741 11.6582 -1.65169 23.943 5.72556 31.406L5.81123 31.4937L17.8348 43.5163C18.0687 43.7531 18.3877 43.8865 18.7206 43.8865C19.0535 43.8865 19.3725 43.7531 19.6064 43.5163C19.8433 43.2824 19.9766 42.9634 19.9766 42.6305C19.9766 42.2976 19.8433 41.9786 19.6064 41.7447L14.1171 36.2554L7.78696 29.9252C1.65882 23.7971 1.36796 13.7778 7.43793 7.59252C13.6824 1.17353 24.0497 1.26131 30.2064 7.82521C35.8406 13.8359 35.8406 23.3624 30.1778 29.3731C29.0154 30.6212 27.6796 31.609 26.2856 32.3938L23.9333 30.0416C25.7346 29.2272 27.3898 27.9506 28.7246 26.2075C32.3841 21.4448 32.0943 14.6207 28.0868 10.1764C23.2363 4.77489 14.8723 4.60144 9.79018 9.68354C4.91115 14.5626 4.8826 22.4909 9.70345 27.3995L9.79018 27.4852L16.4704 34.1654L19.1421 36.8371L21.8138 39.5088C22.0477 39.7456 22.3667 39.879 22.6996 39.879C23.0325 39.879 23.3515 39.7456 23.5854 39.5088C23.8222 39.2749 23.9556 38.9559 23.9556 38.623C23.9556 38.2901 23.8222 37.9711 23.5854 37.7372L22.3373 36.4891L20.1289 34.2818L16.9347 31.0876L11.7363 25.8881C7.87369 22.0255 7.61138 15.7821 11.3005 11.7746C15.454 7.27311 22.7139 7.47618 26.605 12.3838C29.5094 16.0433 29.4808 21.3285 26.5468 24.9298C25.3596 26.4038 23.7791 27.5113 21.9883 28.124L19.3441 25.4819C21.1168 25.3074 22.8588 24.4655 24.0793 22.9266C26.1121 20.4284 26.1121 16.7689 24.0793 14.2717C21.3198 10.8734 16.2081 10.8163 13.3915 14.1268C11.0964 16.7985 11.3873 21.1254 13.8855 23.6236L18.938 28.6761L21.2035 30.9416L23.7588 33.497L25.5304 35.2686C25.8335 35.5754 26.2468 35.7481 26.678 35.7481C27.1092 35.7481 27.5225 35.5754 27.8256 35.2686L31.5718 31.5223C39.0062 24.0869 38.6868 11.7449 30.5554 4.74634C23.8181 -1.12056 13.6539 -1.12056 6.85727 4.68816ZM15.5989 15.4626C17.3123 13.7492 20.1289 13.7492 21.8423 15.4626C23.5558 17.1761 23.5558 19.9926 21.8423 21.7061C20.1289 23.4195 17.3123 23.4195 15.5989 21.7061C14.7628 20.8825 14.2921 19.7579 14.2921 18.5844C14.2921 17.4108 14.7628 16.2862 15.5989 15.4626Z" fill="#F5F5F5"/>
<path d="M57.3008 15.4341H50.1859C49.5136 15.4376 48.9694 15.9814 48.9653 16.6536V27.573C48.9694 28.2452 49.5136 28.789 50.1859 28.7925C50.8577 28.7884 51.4013 28.2448 51.4054 27.573V17.8741H57.3294C58.7551 17.8776 59.9103 19.0323 59.9143 20.458C59.9108 21.8842 58.7556 23.0395 57.3294 23.043H53.728C53.0562 23.047 52.5126 23.5906 52.5085 24.2625C52.5126 24.9343 53.0562 25.4779 53.728 25.482H57.3294C60.0883 25.482 62.3248 23.2455 62.3248 20.4866C62.3248 17.6986 60.0592 15.4341 57.3008 15.4341ZM79.7774 15.579C79.1681 15.2881 78.4415 15.5208 78.1517 16.1311L73.7656 24.8727L69.3805 16.1311C69.0907 15.5208 68.3651 15.2892 67.7548 15.579C67.1446 15.8699 66.9119 16.5954 67.2027 17.2057L72.6624 28.1251C72.8639 28.5344 73.2808 28.7933 73.737 28.7925C74.2024 28.7925 74.6085 28.5312 74.8116 28.1251L80.2713 17.2057C80.6203 16.5954 80.3876 15.8699 79.7774 15.579ZM95.7239 26.3535H88.7538V16.6536C88.7503 15.9814 88.2066 15.4371 87.5343 15.433C86.8621 15.4371 86.3183 15.9814 86.3148 16.6536V27.573C86.3189 28.2448 86.8625 28.7884 87.5343 28.7925H95.7239C96.3961 28.789 96.9404 28.2452 96.9444 27.573C96.9404 26.9007 96.3961 26.3569 95.7239 26.3535ZM111.143 20.8938H105.683C105.282 20.8963 104.896 20.738 104.612 20.4542C104.329 20.1703 104.171 19.7847 104.174 19.3834C104.174 18.5405 104.841 17.8731 105.683 17.8731H113.234C113.906 17.8696 114.45 17.3258 114.454 16.6536C114.451 15.9809 113.906 15.4365 113.234 15.433H105.683C103.502 15.4354 101.735 17.2028 101.734 19.3834C101.736 21.5636 103.503 23.3304 105.683 23.3328H111.143C111.986 23.3328 112.653 24.0012 112.653 24.8431C112.653 25.685 111.986 26.3535 111.143 26.3535H102.953C102.281 26.3575 101.738 26.9012 101.734 27.573C101.738 28.2448 102.281 28.7884 102.953 28.7925H111.143C113.323 28.7907 115.091 27.0237 115.093 24.8431C115.063 22.6643 113.321 20.8938 111.143 20.8938ZM122.644 17.8731H133.564C134.236 17.869 134.78 17.3254 134.784 16.6536C134.78 15.9814 134.236 15.4371 133.564 15.433H122.644C121.971 15.4371 121.428 15.9814 121.424 16.6536C121.428 17.3254 121.972 17.869 122.644 17.8731ZM133.564 20.8938H122.644C121.972 20.8978 121.428 21.4415 121.424 22.1133C121.428 22.7851 121.972 23.3287 122.644 23.3328H133.564C134.236 23.3287 134.78 22.7851 134.784 22.1133C134.78 21.4415 134.236 20.8978 133.564 20.8938ZM133.564 26.3535H122.644C121.972 26.3575 121.428 26.9012 121.424 27.573C121.428 28.2448 121.972 28.7884 122.644 28.7925H133.564C134.236 28.7884 134.78 28.2448 134.784 27.573C134.78 26.9012 134.236 26.3575 133.564 26.3535Z" fill="#F5F5F5"/>
</g>
<defs>
<clipPath id="clip0">
<rect width="134.324" height="44.4221" fill="white" transform="translate(0.460938 0.338989)"/>
</clipPath>
</defs>
</svg>
