<svg width="53" height="54" viewBox="0 0 53 54" fill="none" xmlns="http://www.w3.org/2000/svg">
<g filter="url(#filter0_d)">
<ellipse cx="26.2285" cy="22.7708" rx="20" ry="20.5" fill="white"/>
</g>
<path fill-rule="evenodd" clip-rule="evenodd" d="M29.5409 14.386C29.6544 14.5021 29.7445 14.6401 29.806 14.7919C29.8675 14.9438 29.8991 15.1066 29.8991 15.271C29.8991 15.4355 29.8675 15.5983 29.806 15.7501C29.7445 15.902 29.6544 16.0399 29.5409 16.156L23.0848 22.771L29.5409 29.386C29.6542 29.5023 29.7442 29.6402 29.8055 29.7921C29.8669 29.9439 29.8985 30.1067 29.8985 30.271C29.8985 30.4354 29.8669 30.5981 29.8055 30.75C29.7442 30.9018 29.6542 31.0398 29.5409 31.156C29.4275 31.2723 29.2929 31.3644 29.1447 31.4273C28.9966 31.4902 28.8378 31.5226 28.6774 31.5226C28.5171 31.5226 28.3583 31.4902 28.2102 31.4273C28.062 31.3644 27.9274 31.2723 27.814 31.156L20.4969 23.656C20.3834 23.5399 20.2933 23.402 20.2318 23.2501C20.1703 23.0983 20.1387 22.9355 20.1387 22.771C20.1387 22.6066 20.1703 22.4438 20.2318 22.2919C20.2933 22.1401 20.3834 22.0021 20.4969 21.886L27.814 14.386C27.9273 14.2696 28.0619 14.1773 28.21 14.1143C28.3582 14.0512 28.517 14.0188 28.6774 14.0188C28.8378 14.0188 28.9967 14.0512 29.1448 14.1143C29.293 14.1773 29.4276 14.2696 29.5409 14.386Z" fill="#68627B"/>
<defs>
<filter id="filter0_d" x="0.228516" y="0.270752" width="52" height="53" filterUnits="userSpaceOnUse" color-interpolation-filters="sRGB">
<feFlood flood-opacity="0" result="BackgroundImageFix"/>
<feColorMatrix in="SourceAlpha" type="matrix" values="0 0 0 0 0 0 0 0 0 0 0 0 0 0 0 0 0 0 127 0"/>
<feOffset dy="4"/>
<feGaussianBlur stdDeviation="3"/>
<feColorMatrix type="matrix" values="0 0 0 0 0.14902 0 0 0 0 0.14902 0 0 0 0 0.14902 0 0 0 0.08 0"/>
<feBlend mode="normal" in2="BackgroundImageFix" result="effect1_dropShadow"/>
<feBlend mode="normal" in="SourceGraphic" in2="effect1_dropShadow" result="shape"/>
</filter>
</defs>
</svg>
