<svg width="53" height="54" viewBox="0 0 53 54" fill="none" xmlns="http://www.w3.org/2000/svg">
<g filter="url(#filter0_d)">
<ellipse cx="26.8818" cy="22.7708" rx="20" ry="20.5" fill="white"/>
</g>
<path fill-rule="evenodd" clip-rule="evenodd" d="M22.1496 31.1555C22.036 31.0394 21.9459 30.9014 21.8844 30.7496C21.8229 30.5977 21.7913 30.4349 21.7913 30.2705C21.7913 30.1061 21.8229 29.9432 21.8844 29.7914C21.9459 29.6395 22.036 29.5016 22.1496 29.3855L28.6057 22.7705L22.1496 16.1555C22.0362 16.0393 21.9463 15.9013 21.8849 15.7494C21.8235 15.5976 21.7919 15.4348 21.7919 15.2705C21.7919 15.1061 21.8235 14.9434 21.8849 14.7915C21.9463 14.6397 22.0362 14.5017 22.1496 14.3855C22.263 14.2692 22.3976 14.1771 22.5457 14.1142C22.6939 14.0513 22.8526 14.0189 23.013 14.0189C23.1733 14.0189 23.3321 14.0513 23.4803 14.1142C23.6284 14.1771 23.763 14.2692 23.8764 14.3855L31.1935 21.8855C31.307 22.0016 31.3972 22.1395 31.4586 22.2914C31.5201 22.4432 31.5518 22.6061 31.5518 22.7705C31.5518 22.9349 31.5201 23.0977 31.4586 23.2496C31.3972 23.4014 31.307 23.5394 31.1935 23.6555L23.8764 31.1555C23.7631 31.2719 23.6286 31.3642 23.4804 31.4273C23.3322 31.4903 23.1734 31.5227 23.013 31.5227C22.8526 31.5227 22.6938 31.4903 22.5456 31.4273C22.3974 31.3642 22.2629 31.2719 22.1496 31.1555Z" fill="#68627B"/>
<defs>
<filter id="filter0_d" x="0.881836" y="0.270752" width="52" height="53" filterUnits="userSpaceOnUse" color-interpolation-filters="sRGB">
<feFlood flood-opacity="0" result="BackgroundImageFix"/>
<feColorMatrix in="SourceAlpha" type="matrix" values="0 0 0 0 0 0 0 0 0 0 0 0 0 0 0 0 0 0 127 0"/>
<feOffset dy="4"/>
<feGaussianBlur stdDeviation="3"/>
<feColorMatrix type="matrix" values="0 0 0 0 0.14902 0 0 0 0 0.14902 0 0 0 0 0.14902 0 0 0 0.08 0"/>
<feBlend mode="normal" in2="BackgroundImageFix" result="effect1_dropShadow"/>
<feBlend mode="normal" in="SourceGraphic" in2="effect1_dropShadow" result="shape"/>
</filter>
</defs>
</svg>
