<svg width="22" height="21" viewBox="0 0 22 21" fill="none" xmlns="http://www.w3.org/2000/svg">
<path d="M18.2131 6.86628C20.0099 6.86628 21.4717 5.40452 21.4717 3.6077C21.4717 1.81088 20.0099 0.349121 18.2131 0.349121C16.4163 0.349121 14.9545 1.81088 14.9545 3.6077C14.9545 3.76258 14.9661 3.91477 14.9871 4.0639L6.57884 8.01291C5.98232 7.35727 5.12283 6.94515 4.16873 6.94515C2.37192 6.94515 0.910156 8.40691 0.910156 10.2037C0.910156 12.0005 2.37192 13.4623 4.16873 13.4623C4.96699 13.4623 5.69864 13.1733 6.26582 12.6951L13.3505 16.9112C13.3143 17.0933 13.2949 17.2814 13.2949 17.4739C13.2949 19.0593 14.5847 20.3491 16.1701 20.3491C17.7555 20.3491 19.0453 19.0593 19.0453 17.4739C19.0453 15.8885 17.7555 14.5987 16.1701 14.5987C15.4717 14.5987 14.8308 14.8492 14.3321 15.2649L7.30569 11.0834C7.38428 10.8033 7.42731 10.5085 7.42731 10.2036C7.42731 10.0488 7.41572 9.89656 7.39473 9.74734L15.8029 5.79833C16.3994 6.45407 17.259 6.86628 18.2131 6.86628ZM4.16873 11.5455C3.42885 11.5455 2.82697 10.9436 2.82697 10.2037C2.82697 9.46384 3.42885 8.86196 4.16873 8.86196C4.90862 8.86196 5.5105 9.46384 5.5105 10.2037C5.5105 10.9436 4.90862 11.5455 4.16873 11.5455ZM16.1702 16.5156C16.6986 16.5156 17.1286 16.9455 17.1286 17.474C17.1286 18.0025 16.6986 18.4324 16.1702 18.4324C15.6417 18.4324 15.2118 18.0025 15.2118 17.474C15.2118 16.9455 15.6417 16.5156 16.1702 16.5156ZM18.2131 2.26593C18.953 2.26593 19.5549 2.86781 19.5549 3.6077C19.5549 4.34759 18.953 4.94947 18.2131 4.94947C17.4732 4.94947 16.8713 4.34759 16.8713 3.6077C16.8713 2.86781 17.4732 2.26593 18.2131 2.26593Z" fill="#68627B"/>
</svg>
