<svg width="41" height="41" viewBox="0 0 41 41" fill="none" xmlns="http://www.w3.org/2000/svg">
<path d="M20.6587 38.0936C11.9399 38.0936 2.53369 32.6249 2.53369 20.6249C2.53369 8.62488 11.9399 3.15613 20.6587 3.15613C25.5024 3.15613 29.9712 4.74988 33.2837 7.65613C36.8774 10.8436 38.7837 15.3436 38.7837 20.6249C38.7837 25.9061 36.8774 30.3749 33.2837 33.5624C29.9712 36.4686 25.4712 38.0936 20.6587 38.0936Z" fill="url(#paint0_radial)"/>
<path d="M35.6244 10.2405C37.29 12.928 38.1588 16.128 38.1588 19.6874C38.1588 24.9686 36.2525 29.4374 32.6588 32.6249C29.3463 35.5311 24.8463 37.1561 20.0338 37.1561C14.39 37.1561 8.47129 34.8592 4.97754 29.9874C8.34004 35.5061 14.665 38.0936 20.6588 38.0936C25.4713 38.0936 29.9713 36.4686 33.2838 33.5624C36.8775 30.3749 38.7838 25.9061 38.7838 20.6249C38.7838 16.6436 37.6994 13.1061 35.6244 10.2405Z" fill="#EB8F00"/>
<path d="M27.015 33.1999C26.9076 33.1594 26.812 33.0928 26.7368 33.0061C23.6962 29.8468 18.6681 29.7499 15.5087 32.7905C15.4368 32.8624 15.3618 32.9343 15.2931 33.0061C15.2181 33.0936 15.1212 33.1593 15.015 33.1999C14.7806 33.2874 14.515 33.2374 14.3275 33.0718C14.1431 32.9093 14.0806 32.6499 14.1743 32.4218C15.1056 30.0311 17.8743 28.1561 21.015 28.1561C24.1556 28.1561 26.9243 30.0311 27.8556 32.4186C27.9493 32.6468 27.8868 32.9061 27.7025 33.0686C27.515 33.2343 27.2493 33.2843 27.015 33.1999Z" fill="#422B0D"/>
<path d="M18.9525 22.4749C18.2525 21.5937 15.3681 19.8999 14.3275 19.4062C13.94 19.228 13.5369 19.0843 13.1244 18.978C13.0494 18.9562 12.9681 18.9468 12.89 18.9468C12.6874 18.9518 12.4925 19.0253 12.337 19.1552C12.1815 19.2852 12.0746 19.4639 12.0337 19.6624C11.9867 19.869 12.0131 20.0856 12.1083 20.2749C12.2035 20.4642 12.3617 20.6145 12.5556 20.6999C13.0462 20.9405 13.9025 21.3968 14.79 21.8999C14.4259 22.117 14.1244 22.425 13.9151 22.7937C13.7059 23.1624 13.596 23.5791 13.5962 24.003L13.5962 24.4593C13.5962 25.753 14.6462 26.803 15.94 26.803C17.2337 26.803 18.2837 25.753 18.2837 24.4593L18.2837 24.003L18.2837 23.9499C18.6181 23.928 18.9181 23.728 19.065 23.428C19.2181 23.1155 19.1744 22.7437 18.9525 22.4749Z" fill="#422B0D"/>
<path d="M30.0088 19.6624C29.9662 19.4624 29.8565 19.283 29.6979 19.154C29.5393 19.0249 29.3414 18.954 29.1369 18.953C29.0588 18.953 28.9775 18.9624 28.9025 18.9843C28.49 19.0874 28.0869 19.2311 27.6994 19.4061C26.6588 19.8936 23.7744 21.5936 23.0744 22.4686C22.9665 22.6016 22.8994 22.7629 22.8811 22.9331C22.8628 23.1033 22.8941 23.2752 22.9713 23.428C23.1213 23.7311 23.4181 23.928 23.7556 23.9499L23.7556 24.4593C23.7556 25.753 24.8056 26.803 26.0994 26.803C27.3931 26.803 28.4431 25.753 28.4431 24.4593L28.4431 24.003C28.4431 23.1436 27.99 22.3468 27.2525 21.9061C28.14 21.403 28.9963 20.9468 29.4869 20.7061C29.89 20.5311 30.1119 20.0905 30.0088 19.6624Z" fill="#422B0D"/>
<path d="M15.8212 22.3593C15.6073 22.2575 15.3617 22.2444 15.1381 22.3228C14.9145 22.4013 14.731 22.5649 14.6275 22.7781C14.4619 23.1249 14.5369 23.5406 14.815 23.8093C15.2588 24.0218 15.7931 23.8343 16.0087 23.3906C16.1744 23.0437 16.0994 22.6281 15.8212 22.3593Z" fill="#896024"/>
<path d="M25.9807 22.3593C25.7667 22.2575 25.5212 22.2444 25.2976 22.3228C25.074 22.4013 24.8904 22.5649 24.7869 22.7781C24.6213 23.1249 24.6963 23.5406 24.9744 23.8093C25.4182 24.0218 25.9526 23.8343 26.1682 23.3906C26.3338 23.0437 26.2588 22.6281 25.9807 22.3593Z" fill="#896024"/>
<defs>
<radialGradient id="paint0_radial" cx="0" cy="0" r="1" gradientUnits="userSpaceOnUse" gradientTransform="translate(20.6587 20.6249) scale(17.8)">
<stop offset="0.5" stop-color="#FDE030"/>
<stop offset="0.92" stop-color="#F7C02B"/>
<stop offset="1" stop-color="#F4A223"/>
</radialGradient>
</defs>
</svg>
