<svg width="41" height="41" viewBox="0 0 41 41" fill="none" xmlns="http://www.w3.org/2000/svg">
<path d="M20.6962 38.3781C11.9774 38.3781 2.57116 32.9093 2.57117 20.9093C2.57117 8.9093 11.9774 3.44055 20.6962 3.44055C25.5399 3.44055 30.0087 5.0343 33.3212 7.94055C36.9149 11.1281 38.8212 15.6281 38.8212 20.9093C38.8212 26.1906 36.9149 30.6593 33.3212 33.8468C30.0087 36.7531 25.5087 38.3781 20.6962 38.3781Z" fill="url(#paint0_radial)"/>
<path d="M35.6619 10.5249C37.3275 13.2124 38.1963 16.4124 38.1963 19.9718C38.1963 25.253 36.29 29.7218 32.6963 32.9093C29.3838 35.8155 24.8838 37.4405 20.0713 37.4405C14.4275 37.4405 8.50879 35.1437 5.01504 30.2718C8.37754 35.7905 14.7025 38.378 20.6963 38.378C25.5088 38.378 30.0088 36.753 33.3213 33.8468C36.915 30.6593 38.8213 26.1905 38.8213 20.9093C38.8213 16.928 37.7369 13.3905 35.6619 10.5249Z" fill="#EB8F00"/>
<path d="M14.5712 14.0468C13.2619 14.0468 12.0712 15.153 12.0712 16.9905C12.0712 18.828 13.2619 19.9311 14.5712 19.9311C15.8837 19.9311 17.0712 18.8249 17.0712 16.9905C17.0712 15.1561 15.8962 14.0468 14.5712 14.0468Z" fill="#422B0D"/>
<path d="M14.4619 15.2748C14.2479 15.173 14.0024 15.1599 13.7788 15.2384C13.5552 15.3168 13.3716 15.4804 13.2681 15.6936C13.1025 16.0405 13.1775 16.4561 13.4556 16.7248C13.8994 16.9373 14.4337 16.7498 14.6494 16.3061C14.815 15.9592 14.74 15.5436 14.4619 15.2748Z" fill="#896024"/>
<path d="M26.5713 14.0468C25.2619 14.0468 24.0713 15.153 24.0713 16.9905C24.0713 18.828 25.2619 19.9311 26.5713 19.9311C27.8807 19.9311 29.0713 18.8249 29.0713 16.9905C29.0713 15.1561 27.8807 14.0468 26.5713 14.0468Z" fill="#422B0D"/>
<path d="M26.4462 15.2748C26.2322 15.173 25.9867 15.1599 25.7631 15.2384C25.5395 15.3168 25.3559 15.4804 25.2524 15.6936C25.0868 16.0405 25.1618 16.4561 25.4399 16.7248C25.8837 16.9373 26.4181 16.7498 26.6337 16.3061C26.7993 15.9592 26.7243 15.5436 26.4462 15.2748Z" fill="#896024"/>
<path d="M20.8775 25.6874C23.7119 25.6624 26.4244 26.8561 28.3213 28.9624C28.465 29.128 28.4994 29.3624 28.4088 29.5624C28.3182 29.7655 28.1182 29.8968 27.8963 29.8999C27.7963 29.8999 27.6963 29.8718 27.6088 29.8218C26.1025 28.9561 23.5838 27.8811 20.8838 27.8811L20.84 27.8811C18.1432 27.8811 15.6213 28.9561 14.1182 29.8218C14.0307 29.8718 13.9307 29.8999 13.8307 29.8999C13.6088 29.8968 13.4119 29.7655 13.3213 29.5624C13.2275 29.3624 13.2619 29.128 13.4088 28.9624C14.3465 27.9209 15.4947 27.0903 16.7774 26.5258C18.06 25.9612 19.448 25.6754 20.8494 25.6874" fill="#422B0D"/>
<defs>
<radialGradient id="paint0_radial" cx="0" cy="0" r="1" gradientUnits="userSpaceOnUse" gradientTransform="translate(20.6962 20.9093) scale(17.8)">
<stop offset="0.5" stop-color="#FDE030"/>
<stop offset="0.92" stop-color="#F7C02B"/>
<stop offset="1" stop-color="#F4A223"/>
</radialGradient>
</defs>
</svg>
