<svg width="41" height="41" viewBox="0 0 41 41" fill="none" xmlns="http://www.w3.org/2000/svg">
<path d="M20.308 38.0938C11.5893 38.0938 2.18304 32.625 2.18304 20.625C2.18304 8.625 11.5893 3.15625 20.308 3.15625C25.1518 3.15625 29.6205 4.75 32.933 7.65625C36.5268 10.8437 38.433 15.3438 38.433 20.625C38.433 25.9063 36.5268 30.375 32.933 33.5625C29.6205 36.4688 25.1205 38.0938 20.308 38.0938Z" fill="url(#paint0_radial)"/>
<path d="M35.2738 10.2406C36.9394 12.9281 37.8082 16.1281 37.8082 19.6875C37.8082 24.9687 35.9019 29.4375 32.3082 32.625C28.9957 35.5312 24.4957 37.1562 19.6832 37.1562C14.0394 37.1562 8.10817 34.8593 4.62692 29.9875C7.98942 35.5062 14.3113 38.0937 20.3082 38.0937C25.1207 38.0937 29.6207 36.4687 32.9332 33.5625C36.5269 30.375 38.4332 25.9062 38.4332 20.625C38.4332 16.6437 37.3488 13.1062 35.2738 10.2406V10.2406Z" fill="#EB8F00"/>
<path opacity="0.8" d="M8.94873 28.2594C11.969 28.2594 14.4175 25.811 14.4175 22.7906C14.4175 19.7703 11.969 17.3219 8.94873 17.3219C5.92842 17.3219 3.47998 19.7703 3.47998 22.7906C3.47998 25.811 5.92842 28.2594 8.94873 28.2594Z" fill="url(#paint1_radial)"/>
<path opacity="0.8" d="M31.9175 28.2594C34.9378 28.2594 37.3862 25.811 37.3862 22.7906C37.3862 19.7703 34.9378 17.3219 31.9175 17.3219C28.8972 17.3219 26.4487 19.7703 26.4487 22.7906C26.4487 25.811 28.8972 28.2594 31.9175 28.2594Z" fill="url(#paint2_radial)"/>
<path d="M15.1769 12.0969C15.8988 12.1062 16.1081 11.1187 15.3425 10.9562C14.7706 10.8406 14.1425 10.825 13.5206 10.9031C11.78 11.0937 10.28 11.9906 9.30188 13.1594C8.81438 13.7594 9.61126 14.3906 10.1425 13.9437C11.5019 12.8406 13.2956 12.1125 15.1769 12.0969V12.0969Z" fill="#422B0D"/>
<path d="M25.4457 12.3094C24.73 12.3906 24.4238 11.4281 25.1675 11.1906C25.7269 11.0219 26.3488 10.9437 26.9738 10.9594C28.7238 10.9781 30.305 11.7219 31.3957 12.7906C31.9394 13.3406 31.2082 14.0469 30.6363 13.6531C29.1738 12.6875 27.3175 12.1406 25.4457 12.3094V12.3094Z" fill="#422B0D"/>
<path d="M20.4331 31.0312C23.8081 31.0312 25.9956 28.5625 26.5894 27.4062C26.8081 26.9687 26.8082 26.5937 26.6207 26.4375C26.4644 26.3125 26.2456 26.3125 25.9644 26.4375C25.8706 26.4687 25.7769 26.5312 25.6832 26.5937C24.1832 27.6562 22.3394 28.3125 20.4331 28.3125C18.5269 28.3125 16.6831 27.6562 15.1831 26.625C15.0894 26.5625 14.9956 26.5 14.9019 26.4687C14.6206 26.3437 14.4019 26.3437 14.2456 26.4687C14.0581 26.6562 14.0581 27 14.2769 27.4375C14.8706 28.5625 17.0581 31.0312 20.4331 31.0312Z" fill="#422B0D"/>
<path d="M16.558 20.1656L16.4955 20.1031L16.3393 19.9469C16.2768 19.8844 16.2143 19.8531 16.1205 19.7594C16.0268 19.6969 15.933 19.6031 15.808 19.5406C15.683 19.4781 15.558 19.3844 15.433 19.3219C15.308 19.2594 15.1518 19.1969 14.9955 19.1344C14.8393 19.0719 14.683 19.0406 14.5268 19.0094C14.3705 18.9781 14.2143 18.9781 14.0268 18.9781H14.058H13.7455C13.683 18.9781 13.5893 19.0094 13.5268 19.0094C13.3705 19.0406 13.2143 19.0719 13.058 19.1344C12.9018 19.1969 12.7455 19.2281 12.6205 19.3219C12.4955 19.3844 12.3705 19.4469 12.2455 19.5406C12.0268 19.6969 11.8393 19.8531 11.7143 19.9469L11.5268 20.1344L11.4643 20.1969C11.0893 20.5719 10.4643 20.5719 10.0268 20.2594C9.71427 20.0094 9.62052 19.5719 9.77677 19.2594L9.80802 19.1656C9.83927 19.1031 9.87052 19.0094 9.93302 18.9156C10.058 18.6969 10.2768 18.3844 10.6205 18.0406C10.7768 17.8844 10.9955 17.6969 11.2143 17.5406C11.433 17.3844 11.7143 17.2281 11.9955 17.1031C12.2768 16.9781 12.6205 16.8531 12.933 16.7906C13.0893 16.7594 13.2768 16.7282 13.4643 16.6969C13.558 16.6969 13.683 16.6656 13.7143 16.6656H13.9643C14.308 16.6656 14.6518 16.6969 14.9955 16.7594C15.3393 16.8219 15.6518 16.9469 15.933 17.0719C16.2143 17.1969 16.4955 17.3531 16.7143 17.5094C16.9643 17.6656 17.1518 17.8219 17.308 18.0094C17.4643 18.1656 17.6205 18.3219 17.7143 18.4781C17.7768 18.5406 17.808 18.6344 17.8705 18.6969C17.9018 18.7594 17.9643 18.8219 17.9955 18.8844C18.0893 19.0094 18.0893 19.0719 18.1205 19.1344L18.1518 19.1969C18.3705 19.6657 18.1205 20.1969 17.5893 20.3844C17.308 20.5406 16.8393 20.4469 16.558 20.1656V20.1656Z" fill="#422B0D"/>
<path d="M29.3426 20.0531L29.2801 19.9906C29.2457 19.9562 29.1676 19.8687 29.1207 19.8343C29.0613 19.7843 28.9894 19.725 28.9051 19.6562C28.8144 19.5875 28.7113 19.5125 28.5988 19.4343C28.4775 19.3572 28.3523 19.2862 28.2238 19.2218C28.0926 19.15 27.9426 19.1 27.7926 19.0437C27.6426 18.9906 27.4832 18.9625 27.3238 18.9281C27.1644 18.9031 26.9988 18.8906 26.8332 18.8906H26.8769H26.7801L26.6832 18.8937C26.6019 18.8937 26.5894 18.9 26.5582 18.9031C26.5082 18.9031 26.4176 18.9187 26.3394 18.9312C26.1801 18.9656 26.0207 18.9937 25.8707 19.0468C25.7238 19.1031 25.5738 19.1531 25.4426 19.225C25.3082 19.2937 25.1832 19.3656 25.0676 19.4375C24.8426 19.5875 24.6582 19.7375 24.5363 19.85C24.4113 19.9625 24.3394 20.0312 24.3394 20.0312L24.2613 20.1093C23.8832 20.475 23.2457 20.4968 22.8332 20.1625C22.5082 19.8968 22.4269 19.4875 22.5894 19.1468L22.6363 19.0531C22.6676 18.9937 22.7051 18.9 22.7738 18.7906C22.9019 18.5687 23.1144 18.2562 23.4519 17.9281C23.6207 17.7656 23.8176 17.5937 24.0519 17.4375C24.2801 17.275 24.5457 17.1281 24.8394 17C25.1332 16.875 25.4519 16.7656 25.7894 16.6969C25.9613 16.6656 26.1207 16.6344 26.3301 16.6156C26.4269 16.6062 26.5426 16.5969 26.5926 16.5937L26.8332 16.5844C27.1863 16.5906 27.5363 16.6281 27.8769 16.6937C28.2144 16.7625 28.5332 16.8719 28.8269 16.9969C29.1176 17.125 29.3863 17.2718 29.6144 17.4343C29.8488 17.5906 30.0426 17.7593 30.2113 17.925C30.3801 18.0875 30.5144 18.25 30.6269 18.3968C30.6801 18.4718 30.7301 18.5406 30.7769 18.6062C30.8207 18.6781 30.8644 18.7437 30.8988 18.8031C30.9832 18.9343 30.9894 18.9843 31.0207 19.0437L31.0551 19.1218C31.2644 19.5875 31.0113 20.1156 30.4894 20.3031C30.0801 20.45 29.6207 20.3375 29.3426 20.0531V20.0531Z" fill="#422B0D"/>
<defs>
<radialGradient id="paint0_radial" cx="0" cy="0" r="1" gradientUnits="userSpaceOnUse" gradientTransform="translate(20.308 20.625) scale(17.8)">
<stop offset="0.5" stop-color="#FDE030"/>
<stop offset="0.919" stop-color="#F7C02B"/>
<stop offset="1" stop-color="#F4A223"/>
</radialGradient>
<radialGradient id="paint1_radial" cx="0" cy="0" r="1" gradientUnits="userSpaceOnUse" gradientTransform="translate(8.949 22.7902) scale(5.94926 5.65152)">
<stop stop-color="#ED7770"/>
<stop offset="0.9" stop-color="#ED7770" stop-opacity="0"/>
</radialGradient>
<radialGradient id="paint2_radial" cx="0" cy="0" r="1" gradientUnits="userSpaceOnUse" gradientTransform="translate(31.9181 22.7902) scale(5.94926 5.65152)">
<stop stop-color="#ED7770"/>
<stop offset="0.9" stop-color="#ED7770" stop-opacity="0"/>
</radialGradient>
</defs>
</svg>
