<svg width="41" height="41" viewBox="0 0 41 41" fill="none" xmlns="http://www.w3.org/2000/svg">
<path d="M20.6327 37.9429C11.9139 37.9429 2.50769 32.4741 2.50769 20.4741C2.50769 8.47412 11.9139 3.00537 20.6327 3.00537C25.4764 3.00537 29.9452 4.59912 33.2577 7.50537C36.8514 10.6929 38.7577 15.1929 38.7577 20.4741C38.7577 25.7554 36.8514 30.2241 33.2577 33.4116C29.9452 36.3179 25.4452 37.9429 20.6327 37.9429Z" fill="url(#paint0_radial)"/>
<path d="M35.5984 10.0897C37.2641 12.7772 38.1328 15.9772 38.1328 19.5366C38.1328 24.8178 36.2266 29.2866 32.6328 32.4741C29.3203 35.3803 24.8203 37.0053 20.0078 37.0053C14.3641 37.0053 8.44532 34.7085 4.95157 29.8366C8.31407 35.3553 14.6391 37.9428 20.6328 37.9428C25.4453 37.9428 29.9453 36.3178 33.2578 33.4116C36.8516 30.2241 38.7578 25.7553 38.7578 20.4741C38.7578 16.4928 37.6734 12.9553 35.5984 10.0897V10.0897Z" fill="#EB8F00"/>
<path d="M20.8827 26.8491C19.764 26.8491 18.6546 26.6616 17.6015 26.2866C16.3046 25.8397 14.8952 26.5303 14.4484 27.8241C14.1952 28.5553 14.2984 29.3616 14.7265 30.0053C16.0702 32.0678 18.1952 33.1928 20.8827 33.1928C23.5702 33.1928 25.6952 32.0678 27.039 30.0053C27.7984 28.8647 27.4859 27.3241 26.3452 26.5647C26.0277 26.3534 25.6656 26.2184 25.2872 26.1701C24.9088 26.1219 24.5244 26.1618 24.164 26.2866C23.1109 26.6616 22.0015 26.8491 20.8827 26.8491Z" fill="#422B0D"/>
<path opacity="0.8" d="M11.4453 28.6929C14.4656 28.6929 16.914 26.3843 16.914 23.5366C16.914 20.6889 14.4656 18.3804 11.4453 18.3804C8.42497 18.3804 5.97653 20.6889 5.97653 23.5366C5.97653 26.3843 8.42497 28.6929 11.4453 28.6929Z" fill="url(#paint1_radial)"/>
<path opacity="0.8" d="M30.3202 28.6929C33.3405 28.6929 35.7889 26.3843 35.7889 23.5366C35.7889 20.6889 33.3405 18.3804 30.3202 18.3804C27.2999 18.3804 24.8514 20.6889 24.8514 23.5366C24.8514 26.3843 27.2999 28.6929 30.3202 28.6929Z" fill="url(#paint2_radial)"/>
<path d="M34.3796 11.5585C31.814 10.8366 29.9296 12.9335 29.9296 12.9335C29.9296 12.9335 29.7108 10.5553 27.5171 9.80846C24.8858 8.90534 22.1077 10.3428 21.9421 14.071C21.7546 18.3178 27.3733 23.8928 27.3733 23.8928C27.3733 23.8928 34.3483 22.0178 36.6327 18.0428C38.4921 14.8085 36.3202 12.1022 34.3796 11.5585V11.5585Z" fill="#F44336"/>
<path d="M34.3796 11.5585C34.0647 11.475 33.7396 11.436 33.4139 11.4429C34.3321 12.0574 35.0597 12.917 35.5139 13.9242C35.9546 14.9835 36.0702 16.3523 35.2327 17.9867C33.4171 21.5398 27.8264 23.7398 27.4202 23.8929C27.9296 23.7492 34.4483 21.8742 36.6452 18.0523C38.4921 14.8085 36.3202 12.1023 34.3796 11.5585V11.5585Z" fill="#C62828"/>
<path d="M29.9265 13.3179C29.9077 12.9929 29.8577 12.6679 29.7827 12.3491C29.6928 11.8944 29.5069 11.464 29.2375 11.0868C28.968 10.7096 28.6212 10.3942 28.2202 10.1616C27.664 9.83662 27.0483 9.63037 26.4108 9.55225C26.4108 9.55225 27.3483 9.83662 28.0171 11.1335C28.3577 11.8147 28.5608 12.5585 28.6108 13.3179C28.6077 13.596 28.6577 13.8679 28.7577 14.1272C28.8702 14.3866 29.1452 14.5397 29.4265 14.496C29.8546 14.3866 29.9483 13.8522 29.9265 13.3179Z" fill="#C62828"/>
<path d="M23.8516 11.8273C24.436 11.1023 25.3953 10.4117 26.3141 11.0492C26.8016 11.3898 26.8078 12.3554 26.211 12.7898C25.2047 13.5273 25.1578 14.0117 25.0453 14.4179C24.9078 14.9023 24.8203 15.4804 24.3797 15.7242C23.9391 15.9679 23.5516 15.7242 23.3203 15.0273C22.9266 13.9398 23.1266 12.7273 23.8516 11.8273Z" fill="#FF847A"/>
<path d="M13.4827 9.74602C10.9483 10.5679 10.5421 13.3585 10.5421 13.3585C10.5421 13.3585 9.04207 11.4835 6.79207 12.0898C4.10769 12.796 2.59207 15.5335 4.50769 18.7241C6.72644 22.3804 14.4889 23.896 14.4889 23.896C14.4889 23.896 19.2546 18.471 18.9546 13.896C18.7077 10.171 15.3983 9.12415 13.4827 9.74602V9.74602Z" fill="#F44336"/>
<path d="M13.4828 9.74604C13.1734 9.84604 12.8766 9.98979 12.6047 10.171C13.7109 10.1742 14.7922 10.4867 15.7297 11.0742C16.6859 11.6992 17.5391 12.7867 17.7516 14.6148C18.2109 18.5804 14.7734 23.5085 14.5078 23.8679C14.8547 23.4679 19.2391 18.2929 18.9516 13.8929C18.7078 10.171 15.3984 9.12417 13.4828 9.74604V9.74604Z" fill="#C62828"/>
<path d="M10.7578 13.6866C10.564 13.421 10.3453 13.1773 10.1015 12.9585C9.44525 12.2898 8.53588 11.9335 7.6015 11.9835C6.96088 12.021 6.33275 12.1866 5.75775 12.4773C5.75775 12.4773 6.69525 12.1929 7.97025 12.9054C8.63588 13.2898 9.214 13.8054 9.6765 14.4179C9.8265 14.6523 10.0203 14.8523 10.2484 15.0116C10.4859 15.1648 10.7984 15.1366 11.0078 14.946C11.2859 14.6085 11.0703 14.1148 10.7578 13.6866V13.6866Z" fill="#C62828"/>
<path d="M4.88269 15.8179C4.89519 15.5554 4.94207 15.296 5.02019 15.046C5.14832 14.521 5.52019 14.0867 6.01707 13.8773C6.49519 13.7273 7.15769 13.8335 7.41394 14.3117C7.64207 14.7367 7.47644 15.2492 7.35144 15.7179C7.23894 16.2554 7.17644 16.8054 7.16394 17.3554C7.16561 17.5712 7.0817 17.7789 6.93059 17.9329C6.77947 18.0869 6.57347 18.1748 6.35769 18.1773C5.93269 18.1773 5.60144 17.8085 5.36394 17.4554C5.03262 16.9751 4.86396 16.4012 4.88269 15.8179V15.8179Z" fill="#FF847A"/>
<defs>
<radialGradient id="paint0_radial" cx="0" cy="0" r="1" gradientUnits="userSpaceOnUse" gradientTransform="translate(20.6327 20.4741) scale(17.8)">
<stop offset="0.5" stop-color="#FDE030"/>
<stop offset="0.92" stop-color="#F7C02B"/>
<stop offset="1" stop-color="#F4A223"/>
</radialGradient>
<radialGradient id="paint1_radial" cx="0" cy="0" r="1" gradientUnits="userSpaceOnUse" gradientTransform="translate(11.4453 21.1649) scale(5.95993 5.35177)">
<stop stop-color="#ED7770"/>
<stop offset="0.9" stop-color="#ED7770" stop-opacity="0"/>
</radialGradient>
<radialGradient id="paint2_radial" cx="0" cy="0" r="1" gradientUnits="userSpaceOnUse" gradientTransform="translate(39.2327 790.689) scale(6.08125)">
<stop stop-color="#ED7770"/>
<stop offset="0.9" stop-color="#ED7770" stop-opacity="0"/>
</radialGradient>
</defs>
</svg>
