<svg width="19" height="15" viewBox="0 0 19 15" fill="none" xmlns="http://www.w3.org/2000/svg">
<path d="M17.0577 14.966H2.44695C1.96258 14.966 1.49804 14.7736 1.15553 14.4311C0.813024 14.0886 0.620605 13.624 0.620605 13.1397L0.629128 2.18157C0.629123 1.69867 0.820371 1.23542 1.16104 0.893154C1.5017 0.550891 1.96405 0.357478 2.44695 0.355225L17.0577 0.355225C17.5421 0.355225 18.0067 0.547643 18.3492 0.89015C18.6917 1.23266 18.8841 1.6972 18.8841 2.18157V13.1397C18.8841 13.624 18.6917 14.0886 18.3492 14.4311C18.0067 14.7736 17.5421 14.966 17.0577 14.966ZM2.44695 2.18157V4.00792L9.75235 8.57379L17.0577 4.00792V2.18157L9.75235 6.74745L2.44695 2.18157Z" fill="#68627B"/>
</svg>
