<svg width="11" height="14" viewBox="0 0 11 14" fill="none" xmlns="http://www.w3.org/2000/svg">
<path d="M10.0857 5.68103C10.0857 9.70255 5.49589 13.1496 5.49589 13.1496C5.49589 13.1496 0.906067 9.70255 0.906067 5.68103C0.906067 4.30972 1.38964 2.99457 2.2504 2.02491C3.11115 1.05525 4.27859 0.510498 5.49589 0.510498C6.71319 0.510498 7.88063 1.05525 8.74139 2.02491C9.60215 2.99457 10.0857 4.30972 10.0857 5.68103Z" stroke="#68627B" stroke-width="0.975432" stroke-linecap="round" stroke-linejoin="round"/>
<path d="M5.49552 7.11725C6.34048 7.11725 7.02546 6.34561 7.02546 5.39374C7.02546 4.44187 6.34048 3.67023 5.49552 3.67023C4.65055 3.67023 3.96558 4.44187 3.96558 5.39374C3.96558 6.34561 4.65055 7.11725 5.49552 7.11725Z" stroke="#68627B" stroke-width="0.975432" stroke-linecap="round" stroke-linejoin="round"/>
</svg>
