<svg width="41" height="42" viewBox="0 0 41 42" fill="none" xmlns="http://www.w3.org/2000/svg">
<g clip-path="url(#clip0)">
<path d="M39.8781 20.9845C39.8794 30.0765 33.5461 37.9412 24.6627 39.8792C15.7794 41.8172 6.74607 37.3038 2.9614 29.0365C-0.823268 20.7691 1.66207 10.9825 8.93273 5.52381C16.2034 0.065143 26.2961 0.40981 33.1781 6.35114C37.4321 10.0231 39.8781 15.3645 39.8781 20.9845Z" fill="#D4D6EF"/>
<path d="M37.8781 18.9844C37.8788 26.5471 33.4688 33.4158 26.5928 36.5638C19.7168 39.7118 11.6354 38.5604 5.91142 33.6178C-0.707912 25.9518 -0.288579 14.4758 6.87409 7.31376C14.0368 0.151762 25.5121 -0.268238 33.1781 6.3511C36.2174 9.8571 37.8868 14.3444 37.8781 18.9844Z" fill="#F5F5F5"/>
<path d="M25.8441 20.9845C26.0328 20.9852 26.2128 21.0652 26.3394 21.2052C26.4661 21.3452 26.5288 21.5318 26.5114 21.7198C26.1308 25.8352 22.6781 28.9832 18.5448 28.9832C14.4114 28.9832 10.9588 25.8352 10.5781 21.7192C10.5608 21.5312 10.6228 21.3445 10.7501 21.2045C10.8774 21.0645 11.0568 20.9845 11.2454 20.9838H25.8441V20.9845Z" fill="#D4D6EF"/>
<path d="M25.9047 24.1379C24.6387 27.0779 21.7454 28.9833 18.5447 28.9846C17.9134 28.9866 17.2847 28.9126 16.6714 28.7646C16.4501 28.3139 16.3167 27.8253 16.2781 27.3246C19.6521 28.3193 23.2801 26.9939 25.2181 24.0579C25.4647 24.0846 25.6914 24.1113 25.9047 24.1379Z" fill="#D4D6EF"/>
<path d="M25.2181 24.0577C23.2801 26.9937 19.6521 28.319 16.2781 27.3244C16.2261 26.4444 16.5681 25.587 17.2114 24.9844C18.5714 23.6244 22.7114 23.8044 25.2181 24.0577Z" fill="#F5F5F5"/>
<path d="M20.5447 40.3178C20.8874 40.3178 21.2274 40.3085 21.5661 40.2905C11.2894 39.7698 3.2214 31.2905 3.21273 21.0005C3.20273 10.7105 11.2554 2.21718 21.5314 1.67785C21.2047 1.66118 20.8761 1.65118 20.5447 1.65118C9.8674 1.65118 1.2114 10.3072 1.2114 20.9845C1.2114 31.6618 9.8674 40.3178 20.5447 40.3178Z" fill="#F5F5F5"/>
<path d="M0.544739 20.9849C0.554739 17.9849 1.23541 15.0249 2.53741 12.3222C2.94141 11.4789 3.40074 10.6629 3.91207 9.87953C4.17741 9.49486 4.46741 9.12753 4.74407 8.75086C5.01741 8.37153 5.31741 8.0122 5.64207 7.67553C6.88074 6.27153 8.31807 5.05553 9.90807 4.0662C11.4894 3.0622 13.2067 2.29153 15.0081 1.77686C16.8114 1.27086 18.6727 1.0042 20.5447 0.984863V2.3182C18.7974 2.33753 17.0601 2.5862 15.3774 3.05886C13.6967 3.53886 12.0947 4.2582 10.6194 5.19486C9.13474 6.11753 7.79274 7.25286 6.63674 8.5642C6.33274 8.87753 6.05207 9.21286 5.79807 9.56753C5.54007 9.91953 5.26807 10.2615 5.02007 10.6202C4.54341 11.3515 4.11541 12.1129 3.73807 12.9002C2.52341 15.4235 1.88807 18.1855 1.87807 20.9849H0.544739Z" fill="#F5F5F5"/>
<path d="M1.51541 17.6691C1.33874 17.6405 1.15807 17.6851 1.01474 17.7925C0.871405 17.8998 0.777405 18.0598 0.754739 18.2378L0.651405 18.9191L0.613405 19.6071L0.544739 20.9845H1.87807L1.94407 19.6985L1.97807 19.0558L2.07607 18.4198C2.11941 18.0598 1.87274 17.7291 1.51541 17.6691Z" fill="#4756EF"/>
<path d="M20.5448 2.31777V0.984436C18.6728 1.00377 16.8114 1.27044 15.0088 1.7771C13.2074 2.29177 11.4901 3.06244 9.90876 4.06644C8.31876 5.0551 6.88142 6.2711 5.64276 7.67577C5.31742 8.01177 5.01742 8.3711 4.74476 8.75044C4.46742 9.1271 4.17742 9.49444 3.91275 9.8791C3.40142 10.6618 2.94209 11.4778 2.53809 12.3218L2.23942 12.9431C2.16342 13.1071 2.15809 13.2951 2.22609 13.4624C2.29342 13.6298 2.42742 13.7618 2.59609 13.8271C2.93075 13.9538 3.30675 13.8031 3.46009 13.4798L3.73942 12.9004C4.11609 12.1131 4.54409 11.3518 5.02142 10.6204C5.26942 10.2618 5.54142 9.9191 5.79942 9.56777C6.05342 9.21244 6.33342 8.8771 6.63742 8.56444C7.79342 7.2531 9.13476 6.11777 10.6201 5.1951C12.0954 4.25844 13.6974 3.53844 15.3781 3.0591C17.0601 2.58577 18.7974 2.3371 20.5448 2.31777Z" fill="#4756EF"/>
<path d="M20.5447 40.9849C9.4994 40.9835 0.546072 32.0302 0.544739 20.9849C0.544739 20.6169 0.843405 20.3182 1.21141 20.3182C1.57941 20.3182 1.87807 20.6169 1.87807 20.9849C1.87874 31.2935 10.2354 39.6502 20.5441 39.6495C30.8527 39.6495 39.2094 31.2929 39.2094 20.9842C39.2101 10.6755 30.8534 2.31886 20.5447 2.3182C20.1767 2.3182 19.8781 2.01953 19.8781 1.65153C19.8781 1.28353 20.1767 0.984863 20.5447 0.984863C31.5907 0.984863 40.5447 9.93886 40.5447 20.9849C40.5447 32.0309 31.5907 40.9849 20.5447 40.9849Z" fill="#4756EF"/>
<path d="M18.5448 29.6511C14.0574 29.6737 10.3034 26.2504 9.91408 21.7797C9.87942 21.4051 10.0041 21.0331 10.2574 20.7551C10.5108 20.4771 10.8694 20.3184 11.2454 20.3171H25.8441C26.2201 20.3177 26.5788 20.4764 26.8321 20.7551C27.0854 21.0331 27.2101 21.4051 27.1754 21.7797C26.7861 26.2504 23.0321 29.6737 18.5448 29.6511ZM11.2454 21.6511C11.5894 25.4257 14.7528 28.3157 18.5428 28.3177C22.3328 28.3197 25.4994 25.4331 25.8474 21.6591L25.8441 21.6511H11.2454Z" fill="#4756EF"/>
<path d="M18.5447 29.6511C17.86 29.6531 17.178 29.5724 16.5127 29.4118C16.318 29.3644 16.1547 29.2311 16.0687 29.0498C15.81 28.5224 15.6554 27.9504 15.6127 27.3644C15.548 26.2938 15.9607 25.2498 16.74 24.5131C17.9347 23.3184 20.81 22.9438 25.2847 23.3944C25.54 23.4224 25.7707 23.4491 25.9874 23.4764C26.1954 23.5024 26.3794 23.6251 26.4834 23.8064C26.5874 23.9884 26.6 24.2084 26.5174 24.4011C25.148 27.5878 22.0127 29.6518 18.5447 29.6511ZM17.1487 28.1865C20.204 28.7711 23.2967 27.3731 24.8774 24.6938C21.1907 24.3471 18.51 24.6284 17.6827 25.4558C17.174 25.9251 16.9027 26.5978 16.944 27.2885C16.966 27.5965 17.0354 27.8991 17.1487 28.1865Z" fill="#4756EF"/>
<path d="M7.87807 16.3177C7.59474 16.3177 7.34274 16.1391 7.24874 15.8717C7.15474 15.6044 7.24007 15.3071 7.46141 15.1304C8.74674 14.0664 10.3354 13.4351 12.0001 13.3264C11.3174 13.0924 10.6001 12.9764 9.87807 12.9844C9.51007 12.9844 9.21141 12.6857 9.21141 12.3177C9.21141 11.9497 9.51007 11.6511 9.87807 11.6511C13.5261 11.6511 15.0367 13.8544 15.0994 13.9477C15.2614 14.1904 15.2467 14.5111 15.0627 14.7377C14.8787 14.9644 14.5681 15.0451 14.2974 14.9364C12.2174 14.2804 9.94674 14.7477 8.29474 16.1711C8.17674 16.2664 8.02941 16.3177 7.87807 16.3177Z" fill="#4756EF"/>
<path d="M29.2114 16.3177C29.0601 16.3177 28.9134 16.2664 28.7954 16.1717C27.1427 14.7471 24.8701 14.2804 22.7894 14.9377C22.5181 15.0437 22.2101 14.9617 22.0267 14.7357C21.8441 14.5091 21.8287 14.1904 21.9894 13.9477C22.0527 13.8544 23.5634 11.6511 27.2114 11.6511C27.5794 11.6511 27.8781 11.9497 27.8781 12.3177C27.8781 12.6857 27.5794 12.9844 27.2114 12.9844C26.4901 12.9764 25.7721 13.0924 25.0894 13.3271C26.7541 13.4357 28.3421 14.0664 29.6274 15.1304C29.8487 15.3071 29.9334 15.6044 29.8401 15.8717C29.7467 16.1391 29.4947 16.3177 29.2114 16.3177Z" fill="#4756EF"/>
<path d="M1.95342 16.3777C2.31866 16.3777 2.61475 16.0816 2.61475 15.7164C2.61475 15.3511 2.31866 15.0551 1.95342 15.0551C1.58817 15.0551 1.29208 15.3511 1.29208 15.7164C1.29208 16.0816 1.58817 16.3777 1.95342 16.3777Z" fill="#4756EF"/>
</g>
<defs>
<clipPath id="clip0">
<rect width="40" height="40" fill="white" transform="translate(0.544739 0.984863)"/>
</clipPath>
</defs>
</svg>
