<svg width="21" height="20" viewBox="0 0 21 20" fill="none" xmlns="http://www.w3.org/2000/svg">
<path d="M17.4265 6.35026C19.1343 6.35026 20.5236 4.96093 20.5236 3.25313C20.5236 1.54534 19.1343 0.156006 17.4265 0.156006C15.7187 0.156006 14.3294 1.54534 14.3294 3.25313C14.3294 3.40034 14.3404 3.54499 14.3603 3.68673L6.36865 7.44009C5.8017 6.81693 4.98478 6.42523 4.07796 6.42523C2.37017 6.42523 0.980835 7.81457 0.980835 9.52236C0.980835 11.2302 2.37017 12.6195 4.07796 12.6195C4.83667 12.6195 5.53207 12.3448 6.07115 11.8903L12.8048 15.8975C12.7704 16.0706 12.7519 16.2493 12.7519 16.4323C12.7519 17.9392 13.9778 19.1651 15.4847 19.1651C16.9915 19.1651 18.2174 17.9392 18.2174 16.4323C18.2174 14.9255 16.9915 13.6996 15.4847 13.6996C14.8209 13.6996 14.2118 13.9377 13.7378 14.3327L7.0595 10.3584C7.13419 10.0922 7.17509 9.81203 7.17509 9.52227C7.17509 9.37506 7.16407 9.23041 7.14412 9.08858L15.1357 5.33522C15.7027 5.95848 16.5197 6.35026 17.4265 6.35026ZM4.07796 10.7976C3.37473 10.7976 2.80268 10.2256 2.80268 9.52236C2.80268 8.81913 3.37473 8.24707 4.07796 8.24707C4.78119 8.24707 5.35325 8.81913 5.35325 9.52236C5.35325 10.2256 4.78119 10.7976 4.07796 10.7976ZM15.4848 15.5215C15.9871 15.5215 16.3957 15.9301 16.3957 16.4324C16.3957 16.9347 15.9871 17.3433 15.4848 17.3433C14.9825 17.3433 14.5739 16.9347 14.5739 16.4324C14.5739 15.9301 14.9825 15.5215 15.4848 15.5215ZM17.4265 1.97785C18.1297 1.97785 18.7018 2.5499 18.7018 3.25313C18.7018 3.95636 18.1297 4.52842 17.4265 4.52842C16.7233 4.52842 16.1512 3.95636 16.1512 3.25313C16.1512 2.5499 16.7233 1.97785 17.4265 1.97785Z" fill="#68627B"/>
</svg>
